<svg xmlns="http://www.w3.org/2000/svg" width="150" height="150"><path d="M74.607.07C33.445.07.073 33.439.073 74.606s33.372 74.54 74.534 74.54a74.3 74.3 0 0 0 28.51-5.678 12.434 12.434 0 0 0 4.032-20.271l-8.745-8.745a12.425 12.425 0 0 1 8.782-21.207l29.534-.007a12.42 12.42 0 0 0 12.423-12.421v-6.21C149.141 33.435 115.774.07 74.607.07m62.111 80.746-29.534.005c-13.703 0-24.844 11.141-24.844 24.844 0 6.64 2.584 12.872 7.278 17.568l8.747 8.745a61.5 61.5 0 0 1-23.76 4.746c-34.246 0-62.111-27.867-62.111-62.119S40.36 12.492 74.607 12.492s62.111 27.859 62.111 62.111z"/><path d="M62.184 37.338c0 6.861 5.562 12.423 12.423 12.423S87.03 44.199 87.03 37.338a12.423 12.423 0 1 0-24.846 0m-26.063 45.14a12.41 12.41 0 0 1 16.964 4.548c3.43 5.94 1.4 13.536-4.537 16.972-5.945 3.426-13.541 1.39-16.977-4.549-3.425-5.943-1.39-13.538 4.55-16.971m58.331-26.506c0 6.863 5.563 12.426 12.426 12.426s12.427-5.563 12.427-12.426-5.564-12.427-12.427-12.427-12.426 5.563-12.426 12.427M36.121 66.73a12.42 12.42 0 0 1-4.543-16.97 12.42 12.42 0 1 1 21.51 12.417c-3.429 5.941-11.024 7.98-16.967 4.554Z"/></svg>